<svg xmlns="http://www.w3.org/2000/svg" height="512" viewBox="0 0 64 64" width="512"><g data-name="computer coding"><path d="M41 57l3 4H20l3-4h16z" fill="#dbdbd9" data-original="#00E7F0" data-old_color="#00e7f0"/><path d="M38 51l1 6H25l1-6h5z" fill="#d7d4c9" data-original="#FFEB99" data-old_color="#ffeb99"/><path d="M31 45H3v4a2.006 2.006 0 002 2h54a2.006 2.006 0 002-2v-4z" fill="#dbdbd9" data-original="#00E7F0" data-old_color="#00e7f0"/><path d="M61 17v28H3V17a2.006 2.006 0 012-2h54a2.006 2.006 0 012 2z" fill="#fff" data-original="#57A4FF" data-old_color="#57a4ff"/><path d="M61 17v28h-2V17a2.006 2.006 0 00-2-2h2a2.006 2.006 0 012 2z" fill="#81c7f9" data-original="#2488FF" data-old_color="#2488ff"/><path d="M61 45v4a2.006 2.006 0 01-2 2h-2a2.006 2.006 0 002-2v-4zM44 61h-2l-3-4h2z" fill="#b1b5b6" data-original="#00B6BD" data-old_color="#00b6bd"/><path d="M31 37v2a2.006 2.006 0 01-2 2H11a2.006 2.006 0 01-2-2V5a2.006 2.006 0 012-2h18a2.006 2.006 0 012 2z" fill="#aae4ff" data-original="#FFDAAA" class="active-path" data-old_color="#ffdaaa"/><path d="M40.293 31.707l1.414-1.414L36.414 25l5.293-5.293-1.414-1.414-6 6a1 1 0 000 1.414zM51.707 31.707l6-6a1 1 0 000-1.414l-6-6-1.414 1.414L55.586 25l-5.293 5.293zM34 40h2v2h-2zM38 40h20v2H38zM34 36h20v2H34zM56 36h2v2h-2zM42.055 32.663l5.998-15.994 1.872.702-5.998 15.994zM13 19h3v3a1 1 0 001 1h2v5a1 1 0 001 1h8v-2h-7v-4h3v-2h-6v-2h1v-2h-5v-3h-2v4a1 1 0 001 1zM13 34h2v3a1 1 0 001 1h12v-2H17v-2h2v-2h-5v-3h-2v4a1 1 0 001 1zM13 11h12V9H14V6h-2v4a1 1 0 001 1zM31 47h2v2h-2z" data-original="#000000" data-old_color="#000000"/><path d="M59 14H32V5a3 3 0 00-3-3H11a3 3 0 00-3 3v9H5a3 3 0 00-3 3v32a3 3 0 003 3h19.82l-.667 4H23a1 1 0 00-.8.4l-3 4A1 1 0 0020 62h24a1 1 0 00.8-1.6l-3-4a1 1 0 00-.8-.4h-1.153l-.667-4H59a3 3 0 003-3V17a3 3 0 00-3-3zM10 5a1 1 0 011-1h18a1 1 0 011 1v34a1 1 0 01-1 1H11a1 1 0 01-1-1zM5 16h3v23a3 3 0 003 3h18a3 3 0 003-3V16h27a1 1 0 011 1v27H4V17a1 1 0 011-1zm37 44H22l1.5-2h17zm-4.18-4H26.18l.667-4h10.306zM59 50H5a1 1 0 01-1-1v-3h56v3a1 1 0 01-1 1z" data-original="#000000" data-old_color="#000000"/></g></svg>