<svg xmlns="http://www.w3.org/2000/svg" height="512" width="512"><path d="M464.419 296.081H400.29a8.016 8.016 0 01-8.016-8.016V167.823a8.016 8.016 0 018.016-8.016h64.129a8.016 8.016 0 018.016 8.016v120.242a8.016 8.016 0 01-8.016 8.016z" fill="#ffa323" data-original="#FFE07D" class="active-path" data-old_color="#ffe07d"/><path d="M352.194 296.081h-80.161a8.016 8.016 0 01-8.016-8.016V71.629a8.016 8.016 0 018.016-8.016h80.161a8.016 8.016 0 018.016 8.016v216.435a8.016 8.016 0 01-8.016 8.017z" fill="#2a9b58" data-original="#CCF49F" data-old_color="#ccf49f"/><path d="M312.113 272.032c-13.282 0-24.048-10.767-24.048-24.048V63.613h-16.032a8.016 8.016 0 00-8.016 8.016v216.435a8.016 8.016 0 008.016 8.016h80.161a8.016 8.016 0 008.016-8.016v-16.032z" fill="#b3e59f" data-original="#B3E59F"/><path d="M223.936 95.677h-48.097V296.08h48.097a8.016 8.016 0 008.016-8.016V103.693a8.017 8.017 0 00-8.016-8.016z" fill="#d2242c" data-original="#FF8086" data-old_color="#ff8086"/><path d="M215.919 272.032c-13.282 0-24.048-10.767-24.048-24.048V95.677h-16.032a8.016 8.016 0 00-8.016 8.016v184.371a8.016 8.016 0 008.016 8.016h48.097a8.016 8.016 0 008.016-8.016v-16.032z" fill="#e5646e" data-original="#E5646E"/><circle cx="119.726" cy="424.339" fill="#5d5360" r="24.048" data-original="#5D5360"/><circle cx="480.452" cy="424.339" fill="#5d5360" r="24.048" data-original="#5D5360"/><path d="M440.371 272.032c-13.282 0-24.048-10.767-24.048-24.048v-88.177H400.29a8.016 8.016 0 00-8.016 8.016v120.242a8.016 8.016 0 008.016 8.016h64.129a8.016 8.016 0 008.016-8.016v-16.032h-32.064z" fill="#ffd064" data-original="#FFD064"/><g><path d="M472.436 335.646c21.816 0 39.564-17.749 39.564-39.565V127.742a7.5 7.5 0 00-7.5-7.5H367.709V71.629c0-8.556-6.96-15.516-15.516-15.516h-80.161c-8.556 0-15.516 6.96-15.516 15.516v48.613h-17.064v-16.549c0-8.556-6.96-15.516-15.516-15.516h-48.097c-8.556 0-15.516 6.96-15.516 15.516v16.549H77.96l-7.722-21.764c-5.59-15.75-20.574-26.333-37.287-26.333H7.5a7.5 7.5 0 000 15h25.451c10.376 0 19.68 6.57 23.15 16.35l73.031 205.816c4.447 12.531 14.842 21.784 27.321 25.046l-28.941 59.407a31.495 31.495 0 00-7.787-.975c-17.396 0-31.548 14.153-31.548 31.549s14.152 31.548 31.548 31.548c14.812 0 27.265-10.263 30.641-24.048h299.445c3.375 13.786 15.829 24.048 30.64 24.048 17.396 0 31.548-14.153 31.548-31.548 0-17.396-14.152-31.549-31.548-31.549-14.812 0-27.265 10.263-30.64 24.049H150.366a31.576 31.576 0 00-9.616-15.996l31.761-65.197h299.925zm-352.71 105.241c-9.125 0-16.548-7.423-16.548-16.548s7.423-16.549 16.548-16.549 16.549 7.424 16.549 16.549-7.424 16.548-16.549 16.548zm360.726-33.097c9.125 0 16.548 7.424 16.548 16.549s-7.423 16.548-16.548 16.548-16.548-7.423-16.548-16.548 7.423-16.549 16.548-16.549zM271.516 71.629c0-.284.231-.516.516-.516h80.161c.285 0 .516.232.516.516v48.613h-81.193zm0 63.613h81.193v152.822a.516.516 0 01-.516.516h-80.161a.516.516 0 01-.516-.516zm-96.193-31.549c0-.284.231-.516.516-.516h48.097c.285 0 .516.231.516.516v16.549h-49.129zM143.27 304.295L83.283 135.242h141.168v152.822a.516.516 0 01-.516.516h-48.097a.516.516 0 01-.516-.516V159.81a7.5 7.5 0 00-15 0v128.255c0 8.556 6.96 15.516 15.516 15.516h48.097c8.556 0 15.516-6.96 15.516-15.516V135.242h17.064v152.822c0 8.556 6.96 15.516 15.516 15.516h80.161c8.556 0 15.516-6.96 15.516-15.516V135.242H497V296.08c0 13.545-11.02 24.565-24.564 24.565H166.42c-10.377.001-19.681-6.57-23.15-16.35z" data-original="#000000" data-old_color="#000000"/><path d="M400.291 303.581h64.129c8.556 0 15.516-6.96 15.516-15.516v-16.033a7.5 7.5 0 00-15 0v16.033a.516.516 0 01-.516.516h-64.129a.516.516 0 01-.516-.516V167.822c0-.284.231-.516.516-.516h64.129c.285 0 .516.231.516.516v72.144c0 4.143 3.358 7.5 7.5 7.5s7.5-3.357 7.5-7.5v-72.144c0-8.556-6.96-15.516-15.516-15.516h-64.129c-8.556 0-15.516 6.96-15.516 15.516v120.242c-.001 8.556 6.96 15.517 15.516 15.517z" data-original="#000000" data-old_color="#000000"/></g></svg>