<svg xmlns="http://www.w3.org/2000/svg" viewBox="0 0 512.008 512.008" width="512" height="512"><path d="M114.223 109.79L71.556 67.123c-4.165-4.164-10.917-4.164-15.083 0L13.807 109.79a10.669 10.669 0 00-3.136 7.552v384c0 5.891 4.776 10.667 10.667 10.667h85.333c5.891 0 10.667-4.776 10.667-10.667v-384a10.668 10.668 0 00-3.115-7.552z" data-original="#64B5F6" data-old_color="#64B5F6" fill="#c01313"/><path d="M238.746 150.152a10.667 10.667 0 00-11.627 2.304l-35.115 35.136-35.115-35.136c-4.16-4.171-10.914-4.179-15.085-.019a10.667 10.667 0 00-3.134 7.571v341.333c0 5.891 4.776 10.667 10.667 10.667h85.333c5.891 0 10.667-4.776 10.667-10.667V160.008c0-4.316-2.602-8.207-6.591-9.856z" data-original="#42A5F5" data-old_color="#42A5F5" fill="#ce1e1e"/><path d="M366.746 192.819a10.667 10.667 0 00-11.627 2.304l-35.115 35.136-35.115-35.136c-4.16-4.171-10.914-4.179-15.085-.019a10.667 10.667 0 00-3.134 7.571v298.667c0 5.891 4.776 10.667 10.667 10.667h85.333c5.891 0 10.667-4.776 10.667-10.667V202.675c0-4.316-2.602-8.207-6.591-9.856z" data-original="#2196F3" data-old_color="#2196F3" fill="#e22c2c"/><path d="M405.338 298.675h85.333c5.891 0 10.667 4.776 10.667 10.667v192c0 5.891-4.776 10.667-10.667 10.667h-85.333c-5.891 0-10.667-4.776-10.667-10.667v-192c0-5.891 4.776-10.667 10.667-10.667z" data-original="#1976D2" data-old_color="#1976D2" fill="#ee6060"/><path d="M494.746 192.819a10.667 10.667 0 00-11.627 2.304l-24.448 24.469-88.448-88.469c-4.165-4.164-10.917-4.164-15.083 0l-35.136 35.136-77.781-77.803c-4.165-4.164-10.917-4.164-15.083 0l-35.136 35.136L71.556 3.123c-4.165-4.164-10.917-4.164-15.083 0L13.807 45.79A10.668 10.668 0 0028.89 60.873l35.115-35.115 120.448 120.469c4.165 4.164 10.917 4.164 15.083 0l35.136-35.136 77.781 77.781c4.165 4.164 10.917 4.164 15.083 0l35.136-35.115 80.917 80.917-24.448 24.448a10.668 10.668 0 007.531 18.219h64c5.891 0 10.667-4.776 10.667-10.667v-64a10.67 10.67 0 00-6.593-9.855z" data-original="#455A64" class="active-path" data-old_color="#455A64"/></svg>