<?xml version="1.0" encoding="utf-8"?>
<!-- Generator: Adobe Illustrator 24.0.2, SVG Export Plug-In . SVG Version: 6.00 Build 0)  -->
<svg version="1.1" id="Layer_1" xmlns="http://www.w3.org/2000/svg" xmlns:xlink="http://www.w3.org/1999/xlink" x="0px" y="0px"
	 viewBox="0 0 1744.85 758.3" style="enable-background:new 0 0 1744.85 758.3;" xml:space="preserve">
<style type="text/css">
	.st0{fill:url(#SVGID_1_);}
	.st1{fill:url(#SVGID_2_);}
	.st2{fill:url(#SVGID_3_);}
	.st3{fill:url(#SVGID_4_);}
	.st4{fill:url(#SVGID_5_);}
	.st5{fill:url(#SVGID_6_);}
	.st6{fill:url(#SVGID_7_);}
	.st7{fill:url(#SVGID_8_);}
	.st8{fill:#061322;}
	.st9{fill:url(#SVGID_9_);}
	.st10{fill:url(#SVGID_10_);}
	.st11{font-family:'CopperplateGothic-Bold';}
	.st12{font-size:93.9619px;}
	.st13{letter-spacing:27.54;}
</style>
<g>
	<g>
		<g>
			<radialGradient id="SVGID_1_" cx="349.127" cy="429.2942" r="220.9321" gradientUnits="userSpaceOnUse">
				<stop  offset="0" style="stop-color:#FFFFFF"/>
				<stop  offset="0.3404" style="stop-color:#EC1B2E"/>
				<stop  offset="1" style="stop-color:#93070A"/>
			</radialGradient>
			<path class="st0" d="M521.03,269.96c-45.32-53.01-102.83-60.86-189.26-61.23v81.16c61.3-1.36,143.41-5.14,143.41,139.53
				c0,213.42-176.71,117.57-251.99,136.46c-23.92,6.01-49.36,18.67-77.2,41.63c-1.39,1.15-19.62,18.02-18.06,17.13
				c127.77-73.19,210.65,86.05,354.69-2.29C594.32,553.84,590.61,351.53,521.03,269.96z"/>
			<radialGradient id="SVGID_2_" cx="294.9939" cy="398.9693" r="173.9396" gradientUnits="userSpaceOnUse">
				<stop  offset="0.3404" style="stop-color:#6D6E70"/>
				<stop  offset="0.6809" style="stop-color:#061322"/>
				<stop  offset="1" style="stop-color:#404041"/>
			</radialGradient>
			<path class="st1" d="M450.95,514.76c-64.04,26.68-102.06,25.73-133.49,21.45V290.11v-81.37c-28.29,0.1-59.51,0-94.27,0v329.53
				c-20.6,7.47-45.01,21.14-76.46,45.09c-0.85,0.66-8.52,6.35-7.6,5.8C290.9,500.61,345.72,616,450.95,514.76z"/>
			
				<radialGradient id="SVGID_3_" cx="295.0617" cy="405.678" r="173.9396" gradientTransform="matrix(1 0 0 0.2956 0 25.435)" gradientUnits="userSpaceOnUse">
				<stop  offset="0.3404" style="stop-color:#6D6E70"/>
				<stop  offset="0.6809" style="stop-color:#061322"/>
				<stop  offset="1" style="stop-color:#404041"/>
			</radialGradient>
			<path class="st2" d="M317.53,183.51V89.13c-28.29,0.03-59.51,0-94.27,0v94.38H317.53z"/>
		</g>
		<g>
			<g>
				<linearGradient id="SVGID_4_" gradientUnits="userSpaceOnUse" x1="376.1857" y1="178.3901" x2="376.1857" y2="679.6904">
					<stop  offset="0" style="stop-color:#FFFFFF"/>
					<stop  offset="0.4833" style="stop-color:#EC1B2E"/>
					<stop  offset="1" style="stop-color:#93070A"/>
				</linearGradient>
				<path class="st3" d="M187.36,595.01c14.66-8.81,29.18-14.98,43.84-18.67c6.23-1.56,13.78-2.32,23.06-2.32
					c78.53,0,237.07,60,237.07-144.59c0-132.74-67.16-150.64-132.87-150.64c-3.55,0-7.06,0.04-10.53,0.11V219.6
					c81.4,1.11,130.91,11.28,170.3,57.36c65.51,76.79,69.73,271.44-35.87,336.2C364.99,685.16,290.9,582.76,187.36,595.01z"/>
			</g>
			<g>
				<linearGradient id="SVGID_5_" gradientUnits="userSpaceOnUse" x1="264.9353" y1="178.3904" x2="264.9353" y2="679.6859">
					<stop  offset="0" style="stop-color:#FFFFFF"/>
					<stop  offset="0.3404" style="stop-color:#061322"/>
					<stop  offset="0.6809" style="stop-color:#58595B"/>
					<stop  offset="1" style="stop-color:#404041"/>
				</linearGradient>
				<path class="st4" d="M301.3,545.23c-24.65-2.73-46.78-4.47-72.72-1.25V219.52c52.32,0.03,60.07,0.05,72.72,0.02V545.23z"/>
			</g>
		</g>
		<g>
			<g>
				<linearGradient id="SVGID_6_" gradientUnits="userSpaceOnUse" x1="486.7617" y1="507.3554" x2="400.5399" y2="33.1331">
					<stop  offset="0" style="stop-color:#FFFFFF"/>
					<stop  offset="0.075" style="stop-color:#FDE1E4"/>
					<stop  offset="0.2384" style="stop-color:#F6969F"/>
					<stop  offset="0.4767" style="stop-color:#EC1E31"/>
					<stop  offset="0.4833" style="stop-color:#EC1B2E"/>
					<stop  offset="1" style="stop-color:#93070A"/>
				</linearGradient>
				<path class="st5" d="M491.33,429.43c0,0.41-0.01,0.81-0.01,1.22c24.42-4.8,48.86-9.58,73.3-14.42
					c-2.53-54.93-19.13-107.31-46.39-139.27c-39.39-46.08-88.9-56.26-170.3-57.36v59.29c3.47-0.07,6.99-0.11,10.53-0.11
					C424.17,278.79,491.33,296.68,491.33,429.43z"/>
			</g>
			<g>
				<linearGradient id="SVGID_7_" gradientUnits="userSpaceOnUse" x1="299.0731" y1="541.4756" x2="212.8535" y2="67.2656">
					<stop  offset="0" style="stop-color:#FFFFFF"/>
					<stop  offset="0.0811" style="stop-color:#C3C6CA"/>
					<stop  offset="0.1799" style="stop-color:#80878F"/>
					<stop  offset="0.2696" style="stop-color:#4C5560"/>
					<stop  offset="0.3469" style="stop-color:#26313E"/>
					<stop  offset="0.4088" style="stop-color:#0F1B2A"/>
					<stop  offset="0.4476" style="stop-color:#061322"/>
					<stop  offset="0.6809" style="stop-color:#58595B"/>
					<stop  offset="1" style="stop-color:#404041"/>
				</linearGradient>
				<path class="st6" d="M301.3,470.56V219.54c-12.65,0.03-20.4,0.01-72.72-0.02v268.38C252.74,481.87,276.98,476.11,301.3,470.56z"
					/>
			</g>
			<g>
				<linearGradient id="SVGID_8_" gradientUnits="userSpaceOnUse" x1="277.5673" y1="204.5329" x2="247.6092" y2="39.7625">
					<stop  offset="0" style="stop-color:#FFFFFF"/>
					<stop  offset="0.0811" style="stop-color:#C3C6CA"/>
					<stop  offset="0.1799" style="stop-color:#80878F"/>
					<stop  offset="0.2696" style="stop-color:#4C5560"/>
					<stop  offset="0.3469" style="stop-color:#26313E"/>
					<stop  offset="0.4088" style="stop-color:#0F1B2A"/>
					<stop  offset="0.4476" style="stop-color:#061322"/>
					<stop  offset="0.6809" style="stop-color:#58595B"/>
					<stop  offset="1" style="stop-color:#404041"/>
				</linearGradient>
				<path class="st7" d="M301.36,173.7V97.11c-12.65,0.01-20.4,0-72.72-0.01v76.6H301.36z"/>
			</g>
		</g>
	</g>
	<g>
		<g>
			<path class="st8" d="M787.03,374.5v120.28h-52.86V326.04h68.87c30.21,0,53.86,6.51,70.96,19.53
				c20.31,15.58,30.47,36.72,30.47,63.42c0,25.55-8.68,46.41-26.04,62.56c-17.36,16.15-39.71,24.22-67.05,24.22
				c-3.21,0-8.47-0.16-15.76-0.49V445.7h8.46c30.81,0,46.22-12.23,46.22-36.71c0-22.98-15.15-34.48-45.43-34.48H787.03z"/>
			<path class="st8" d="M982.19,326.04v168.74h-52.86V326.04H982.19z"/>
			<path class="st8" d="M1092.98,400.21h50.39c10.84,12.77,16.27,26.25,16.27,40.42c0,16.49-6.36,30.33-19.08,41.54
				c-12.72,11.22-28.36,16.81-46.93,16.81c-24.13,0-44.61-8.69-61.45-26.07c-16.84-17.39-25.26-38.57-25.26-63.54
				c0-25.06,8.58-45.91,25.72-62.56c17.14-16.65,38.56-24.97,64.25-24.97c8.76,0,18.49,1.69,29.16,5.07v50.19
				c-8.34-3.71-15.93-5.56-22.78-5.56c-12.41,0-22.55,3.67-30.4,11.01c-7.86,7.33-11.78,16.85-11.78,28.56
				c0,11.95,3.64,21.42,10.93,28.43c7.29,7.01,17.14,10.5,29.56,10.5c7.9,0,11.84-2.18,11.84-6.55c0-3.29-2.6-4.94-7.81-4.94h-12.63
				V400.21z"/>
			<path class="st8" d="M1233.98,326.04v168.74h-52.86V326.04H1233.98z"/>
			<path class="st8" d="M1346.86,374.5v120.28H1294V374.5h-40.49v-48.46h133.71v48.46H1346.86z"/>
			<path class="st8" d="M1471.19,410.1v44.51h-15.24v40.17h-52.86V387.49c0-20.78,5.97-36.91,17.9-48.4
				c11.93-11.5,28.7-17.25,50.32-17.25c20.82,0,36.24,5.22,46.21,15.64c9.98,10.42,14.96,26.51,14.96,48.28v109.02h-52.86V389.09
				c0-6.6-0.83-11.17-2.47-13.73c-1.65-2.55-4.6-3.83-8.85-3.83c-8.25,0-12.37,5.85-12.37,17.56v21.01H1471.19z"/>
			<path class="st8" d="M1560.9,326.04h52.86V426.3c0,7.83,1.32,13.04,3.97,15.63c2.65,2.6,7.88,3.9,15.69,3.9h2.74v48.95h-14.06
				c-19.27,0-34.29-5.34-45.05-16.01c-10.77-10.66-16.14-25.49-16.14-44.43V326.04z"/>
			<linearGradient id="SVGID_9_" gradientUnits="userSpaceOnUse" x1="650.3677" y1="342.8893" x2="703.2249" y2="342.8893">
				<stop  offset="0" style="stop-color:#FFFFFF"/>
				<stop  offset="8.095575e-03" style="stop-color:#FDE6E8"/>
				<stop  offset="0.0274" style="stop-color:#F9B1B8"/>
				<stop  offset="0.047" style="stop-color:#F5838D"/>
				<stop  offset="0.0665" style="stop-color:#F25E6B"/>
				<stop  offset="0.0857" style="stop-color:#EF4050"/>
				<stop  offset="0.1047" style="stop-color:#ED2C3D"/>
				<stop  offset="0.1235" style="stop-color:#EC1F32"/>
				<stop  offset="0.1415" style="stop-color:#EC1B2E"/>
				<stop  offset="0.3173" style="stop-color:#E01829"/>
				<stop  offset="0.6378" style="stop-color:#BF111C"/>
				<stop  offset="1" style="stop-color:#93070A"/>
			</linearGradient>
			<rect x="650.37" y="326.02" class="st9" width="52.86" height="33.73"/>
			<linearGradient id="SVGID_10_" gradientUnits="userSpaceOnUse" x1="650.3677" y1="433.9712" x2="703.2249" y2="433.9712">
				<stop  offset="0" style="stop-color:#FFFFFF"/>
				<stop  offset="8.095575e-03" style="stop-color:#FDE6E8"/>
				<stop  offset="0.0274" style="stop-color:#F9B1B8"/>
				<stop  offset="0.047" style="stop-color:#F5838D"/>
				<stop  offset="0.0665" style="stop-color:#F25E6B"/>
				<stop  offset="0.0857" style="stop-color:#EF4050"/>
				<stop  offset="0.1047" style="stop-color:#ED2C3D"/>
				<stop  offset="0.1235" style="stop-color:#EC1F32"/>
				<stop  offset="0.1415" style="stop-color:#EC1B2E"/>
				<stop  offset="0.3173" style="stop-color:#E01829"/>
				<stop  offset="0.6378" style="stop-color:#BF111C"/>
				<stop  offset="1" style="stop-color:#93070A"/>
			</linearGradient>
			<rect x="650.37" y="373.18" class="st10" width="52.86" height="121.58"/>
		</g>
	</g>
</g>
<text transform="matrix(1.0532 0 0 1 654.1456 598.4879)" class="st8 st11 st12 st13">WEB STUDIO</text>
</svg>
