<?xml version="1.0" encoding="utf-8"?>
<!-- Generator: Adobe Illustrator 24.0.2, SVG Export Plug-In . SVG Version: 6.00 Build 0)  -->
<svg version="1.1" id="Layer_1" xmlns="http://www.w3.org/2000/svg" xmlns:xlink="http://www.w3.org/1999/xlink" x="0px" y="0px"
	 viewBox="0 0 1918.02 616.85" style="enable-background:new 0 0 1918.02 616.85;" xml:space="preserve">
<style type="text/css">
	.st0{fill:url(#SVGID_1_);}
	.st1{fill:url(#SVGID_2_);}
	.st2{fill:url(#SVGID_3_);}
	.st3{fill:url(#SVGID_4_);}
	.st4{fill:url(#SVGID_5_);}
	.st5{fill:url(#SVGID_6_);}
	.st6{fill:url(#SVGID_7_);}
	.st7{fill:url(#SVGID_8_);}
	.st8{fill:#061322;}
	.st9{fill:url(#SVGID_9_);}
	.st10{fill:url(#SVGID_10_);}
</style>
<g>
	<g>
		<g>
			<radialGradient id="SVGID_1_" cx="349.127" cy="364.9537" r="220.9321" gradientUnits="userSpaceOnUse">
				<stop  offset="0" style="stop-color:#FFFFFF"/>
				<stop  offset="0.3404" style="stop-color:#EC1B2E"/>
				<stop  offset="1" style="stop-color:#93070A"/>
			</radialGradient>
			<path class="st0" d="M521.03,205.62c-45.32-53.01-102.83-60.86-189.26-61.23v81.16c61.3-1.36,143.41-5.14,143.41,139.53
				c0,213.42-176.71,117.57-251.99,136.46c-23.92,6.01-49.36,18.67-77.2,41.63c-1.39,1.15-19.62,18.02-18.06,17.13
				c127.77-73.19,210.65,86.05,354.69-2.29C594.32,489.5,590.61,287.19,521.03,205.62z"/>
			<radialGradient id="SVGID_2_" cx="294.9939" cy="334.6289" r="173.9396" gradientUnits="userSpaceOnUse">
				<stop  offset="0.3404" style="stop-color:#6D6E70"/>
				<stop  offset="0.6809" style="stop-color:#061322"/>
				<stop  offset="1" style="stop-color:#404041"/>
			</radialGradient>
			<path class="st1" d="M450.95,450.42c-64.04,26.68-102.06,25.73-133.49,21.45V225.76v-81.37c-28.29,0.1-59.51,0-94.27,0v329.53
				c-20.6,7.47-45.01,21.14-76.46,45.09c-0.85,0.66-8.52,6.35-7.6,5.8C290.9,436.27,345.72,551.66,450.95,450.42z"/>
			
				<radialGradient id="SVGID_3_" cx="295.0617" cy="341.3376" r="173.9396" gradientTransform="matrix(1 0 0 0.2956 0 -19.8834)" gradientUnits="userSpaceOnUse">
				<stop  offset="0.3404" style="stop-color:#6D6E70"/>
				<stop  offset="0.6809" style="stop-color:#061322"/>
				<stop  offset="1" style="stop-color:#404041"/>
			</radialGradient>
			<path class="st2" d="M317.53,119.17V24.79c-28.29,0.03-59.51,0-94.27,0v94.38H317.53z"/>
		</g>
		<g>
			<g>
				<linearGradient id="SVGID_4_" gradientUnits="userSpaceOnUse" x1="376.1857" y1="114.0496" x2="376.1857" y2="615.35">
					<stop  offset="0" style="stop-color:#FFFFFF"/>
					<stop  offset="0.4833" style="stop-color:#EC1B2E"/>
					<stop  offset="1" style="stop-color:#93070A"/>
				</linearGradient>
				<path class="st3" d="M187.36,530.67c14.66-8.81,29.18-14.98,43.84-18.67c6.23-1.56,13.78-2.32,23.06-2.32
					c78.53,0,237.07,60,237.07-144.59c0-132.74-67.16-150.64-132.87-150.64c-3.55,0-7.06,0.04-10.53,0.11v-59.29
					c81.4,1.11,130.91,11.28,170.3,57.36c65.51,76.79,69.73,271.44-35.87,336.2C364.99,620.82,290.9,518.42,187.36,530.67z"/>
			</g>
			<g>
				<linearGradient id="SVGID_5_" gradientUnits="userSpaceOnUse" x1="264.9353" y1="114.05" x2="264.9353" y2="615.3455">
					<stop  offset="0" style="stop-color:#FFFFFF"/>
					<stop  offset="0.3404" style="stop-color:#061322"/>
					<stop  offset="0.6809" style="stop-color:#58595B"/>
					<stop  offset="1" style="stop-color:#404041"/>
				</linearGradient>
				<path class="st4" d="M301.3,480.89c-24.65-2.73-46.78-4.47-72.72-1.25V155.18c52.32,0.03,60.07,0.05,72.72,0.02V480.89z"/>
			</g>
		</g>
		<g>
			<g>
				<linearGradient id="SVGID_6_" gradientUnits="userSpaceOnUse" x1="486.7617" y1="443.015" x2="400.5399" y2="-31.2074">
					<stop  offset="0" style="stop-color:#FFFFFF"/>
					<stop  offset="0.075" style="stop-color:#FDE1E4"/>
					<stop  offset="0.2384" style="stop-color:#F6969F"/>
					<stop  offset="0.4767" style="stop-color:#EC1E31"/>
					<stop  offset="0.4833" style="stop-color:#EC1B2E"/>
					<stop  offset="1" style="stop-color:#93070A"/>
				</linearGradient>
				<path class="st5" d="M491.33,365.09c0,0.41-0.01,0.81-0.01,1.22c24.42-4.8,48.86-9.58,73.3-14.42
					c-2.53-54.93-19.13-107.31-46.39-139.27c-39.39-46.08-88.9-56.26-170.3-57.36v59.29c3.47-0.07,6.99-0.11,10.53-0.11
					C424.17,214.45,491.33,232.34,491.33,365.09z"/>
			</g>
			<g>
				<linearGradient id="SVGID_7_" gradientUnits="userSpaceOnUse" x1="299.0731" y1="477.1352" x2="212.8535" y2="2.9252">
					<stop  offset="0" style="stop-color:#FFFFFF"/>
					<stop  offset="0.0811" style="stop-color:#C3C6CA"/>
					<stop  offset="0.1799" style="stop-color:#80878F"/>
					<stop  offset="0.2696" style="stop-color:#4C5560"/>
					<stop  offset="0.3469" style="stop-color:#26313E"/>
					<stop  offset="0.4088" style="stop-color:#0F1B2A"/>
					<stop  offset="0.4476" style="stop-color:#061322"/>
					<stop  offset="0.6809" style="stop-color:#58595B"/>
					<stop  offset="1" style="stop-color:#404041"/>
				</linearGradient>
				<path class="st6" d="M301.3,406.22V155.2c-12.65,0.03-20.4,0.01-72.72-0.02v268.38C252.74,417.53,276.98,411.77,301.3,406.22z"
					/>
			</g>
			<g>
				<linearGradient id="SVGID_8_" gradientUnits="userSpaceOnUse" x1="277.5673" y1="140.1924" x2="247.6092" y2="-24.5779">
					<stop  offset="0" style="stop-color:#FFFFFF"/>
					<stop  offset="0.0811" style="stop-color:#C3C6CA"/>
					<stop  offset="0.1799" style="stop-color:#80878F"/>
					<stop  offset="0.2696" style="stop-color:#4C5560"/>
					<stop  offset="0.3469" style="stop-color:#26313E"/>
					<stop  offset="0.4088" style="stop-color:#0F1B2A"/>
					<stop  offset="0.4476" style="stop-color:#061322"/>
					<stop  offset="0.6809" style="stop-color:#58595B"/>
					<stop  offset="1" style="stop-color:#404041"/>
				</linearGradient>
				<path class="st7" d="M301.36,109.36V32.77c-12.65,0.01-20.4,0-72.72-0.01v76.6H301.36z"/>
			</g>
		</g>
	</g>
	<g>
		<g>
			<path class="st8" d="M803.86,216.91v165.6h-59.37V150.18h77.35c33.93,0,60.49,8.96,79.7,26.89
				c22.81,21.46,34.22,50.55,34.22,87.31c0,35.17-9.75,63.9-29.25,86.13c-19.49,22.24-44.6,33.35-75.3,33.35
				c-3.61,0-9.51-0.22-17.7-0.68v-68.25h9.51c34.61,0,51.91-16.84,51.91-50.55c0-31.64-17.01-47.48-51.03-47.48H803.86z"/>
			<path class="st8" d="M1023.05,150.18v232.33h-59.37V150.18H1023.05z"/>
			<path class="st8" d="M1147.49,252.3h56.59c12.18,17.59,18.28,36.14,18.28,55.65c0,22.71-7.14,41.76-21.42,57.19
				c-14.28,15.44-31.85,23.14-52.71,23.14c-27.1,0-50.11-11.96-69.02-35.9c-18.91-23.94-28.37-53.1-28.37-87.48
				c0-34.5,9.63-63.2,28.88-86.13c19.25-22.92,43.31-34.38,72.16-34.38c9.84,0,20.76,2.33,32.75,6.98v69.1
				c-9.36-5.1-17.89-7.65-25.59-7.65c-13.94,0-25.32,5.05-34.15,15.15c-8.82,10.09-13.23,23.2-13.23,39.32
				c0,16.45,4.09,29.5,12.28,39.14c8.19,9.65,19.26,14.46,33.2,14.46c8.87,0,13.3-3.01,13.3-9.02c0-4.53-2.92-6.81-8.77-6.81h-14.19
				V252.3z"/>
			<path class="st8" d="M1305.86,150.18v232.33h-59.37V150.18H1305.86z"/>
			<path class="st8" d="M1432.64,216.91v165.6h-59.37v-165.6h-45.48v-66.73h150.18v66.73H1432.64z"/>
			<path class="st8" d="M1572.29,265.92v61.28h-17.11v55.31h-59.37V234.78c0-28.6,6.71-50.82,20.1-66.64
				c13.4-15.83,32.24-23.75,56.52-23.75c23.38,0,40.7,7.18,51.91,21.53c11.2,14.35,16.81,36.5,16.81,66.47v150.11h-59.37V236.99
				c0-9.09-0.93-15.37-2.77-18.91c-1.86-3.51-5.17-5.27-9.94-5.27c-9.26,0-13.89,8.06-13.89,24.18v28.92H1572.29z"/>
			<path class="st8" d="M1673.04,150.18h59.37v138.04c0,10.78,1.48,17.96,4.46,21.52c2.98,3.58,8.85,5.37,17.62,5.37h3.07v67.39
				h-15.79c-21.64,0-38.51-7.35-50.6-22.05c-12.09-14.68-18.13-35.09-18.13-61.17V150.18z"/>
			<linearGradient id="SVGID_9_" gradientUnits="userSpaceOnUse" x1="650.3677" y1="173.3801" x2="709.7352" y2="173.3801">
				<stop  offset="0" style="stop-color:#FFFFFF"/>
				<stop  offset="8.095575e-03" style="stop-color:#FDE6E8"/>
				<stop  offset="0.0274" style="stop-color:#F9B1B8"/>
				<stop  offset="0.047" style="stop-color:#F5838D"/>
				<stop  offset="0.0665" style="stop-color:#F25E6B"/>
				<stop  offset="0.0857" style="stop-color:#EF4050"/>
				<stop  offset="0.1047" style="stop-color:#ED2C3D"/>
				<stop  offset="0.1235" style="stop-color:#EC1F32"/>
				<stop  offset="0.1415" style="stop-color:#EC1B2E"/>
				<stop  offset="0.3173" style="stop-color:#E01829"/>
				<stop  offset="0.6378" style="stop-color:#BF111C"/>
				<stop  offset="1" style="stop-color:#93070A"/>
			</linearGradient>
			<rect x="650.37" y="150.16" class="st9" width="59.37" height="46.45"/>
			<linearGradient id="SVGID_10_" gradientUnits="userSpaceOnUse" x1="650.3677" y1="298.7843" x2="709.7352" y2="298.7843">
				<stop  offset="0" style="stop-color:#FFFFFF"/>
				<stop  offset="8.095575e-03" style="stop-color:#FDE6E8"/>
				<stop  offset="0.0274" style="stop-color:#F9B1B8"/>
				<stop  offset="0.047" style="stop-color:#F5838D"/>
				<stop  offset="0.0665" style="stop-color:#F25E6B"/>
				<stop  offset="0.0857" style="stop-color:#EF4050"/>
				<stop  offset="0.1047" style="stop-color:#ED2C3D"/>
				<stop  offset="0.1235" style="stop-color:#EC1F32"/>
				<stop  offset="0.1415" style="stop-color:#EC1B2E"/>
				<stop  offset="0.3173" style="stop-color:#E01829"/>
				<stop  offset="0.6378" style="stop-color:#BF111C"/>
				<stop  offset="1" style="stop-color:#93070A"/>
			</linearGradient>
			<rect x="650.37" y="215.08" class="st10" width="59.37" height="167.4"/>
		</g>
	</g>
</g>
<g>
	<path class="st8" d="M717.46,464.54l-16.94,49.83c-0.98,2.53-1.47,4.13-1.47,4.8c0,1.94,1.34,3.31,4.02,4.11v2.02h-23.86v-2.02
		c2.42-0.55,3.64-1.98,3.64-4.29c0-0.63-0.51-2.51-1.52-5.62l-21.24-63.61c-1.05-3.16-2-5.3-2.85-6.41
		c-0.85-1.12-2.09-1.86-3.72-2.24v-2.02h25.75v2.02c-2.28,0.59-3.42,1.83-3.42,3.73c0,0.97,0.29,2.36,0.87,4.17l14.65,45.63
		l15.86-45.88c0.69-1.98,1.03-3.28,1.03-3.92c0-1.94-1.21-3.18-3.64-3.73v-2.02h26.92v2.02c-2.46,0.76-3.69,2.13-3.69,4.11
		c0,0.67,0.31,1.94,0.92,3.79l15.12,45.63l14.6-44.87c0.76-2.23,1.14-3.89,1.14-4.99c0-1.85-1.3-3.07-3.91-3.66v-2.02h25.48v2.02
		c-1.81,0.59-3.06,1.35-3.75,2.27c-0.69,0.93-1.59,3.05-2.71,6.38l-21.24,63.61c-1.01,3.03-1.52,5.05-1.52,6.06
		c0,2.06,1.28,3.35,3.85,3.85v2.02h-24.17v-2.02c2.53-0.46,3.8-1.87,3.8-4.23c0-0.8-0.56-2.69-1.68-5.68L717.46,464.54z"/>
	<path class="st8" d="M839.7,487.46v23.63h47.65c1.09,0,1.92-0.29,2.5-0.88c0.58-0.59,1.05-1.64,1.41-3.16h1.74v22.3h-1.74
		c-0.36-1.52-0.83-2.57-1.41-3.16c-0.58-0.59-1.41-0.88-2.5-0.88h-67.3v-2.02c1.3-0.42,2.21-0.97,2.71-1.64
		c0.51-0.67,0.76-1.66,0.76-2.97V445.7c0-1.3-0.25-2.29-0.76-2.97c-0.51-0.67-1.41-1.22-2.71-1.64v-2.02h65.99
		c1.08,0,1.92-0.3,2.5-0.9c0.58-0.6,1.05-1.65,1.41-3.14h1.74v22.3h-1.74c-0.36-1.5-0.83-2.55-1.41-3.14c-0.58-0.6-1.41-0.9-2.5-0.9
		H839.7v20.47h30.07c1.09,0,1.92-0.29,2.5-0.88c0.58-0.59,1.05-1.64,1.41-3.16h1.74v21.79h-1.74c-0.36-1.47-0.83-2.52-1.41-3.13
		c-0.58-0.61-1.41-0.92-2.5-0.92H839.7z"/>
	<path class="st8" d="M1003.84,480.13c8.32,3.66,12.48,10.45,12.48,20.34c0,7.88-2.42,14.04-7.27,18.51
		c-2.46,2.23-5.31,3.84-8.55,4.83c-3.24,0.99-7.25,1.48-12.02,1.48h-50.63v-2.02c1.3-0.42,2.21-0.97,2.71-1.64
		c0.51-0.67,0.76-1.66,0.76-2.97V445.7c0-1.3-0.25-2.29-0.76-2.97c-0.51-0.67-1.41-1.22-2.71-1.64v-2.02h50.15
		c4.81,0,8.68,0.42,11.61,1.26c2.93,0.84,5.5,2.27,7.71,4.3c4.38,4,6.57,9.77,6.57,17.31
		C1013.88,470.36,1010.53,476.42,1003.84,480.13z M957.49,473.37h28.38c4.3,0,7.31-0.74,9.01-2.21c1.92-1.68,2.88-4.3,2.88-7.83
		c0-3.62-0.9-6.2-2.71-7.74c-1.81-1.54-4.87-2.31-9.17-2.31h-28.38V473.37z M957.49,511.08h27.46c5.1,0,8.77-0.82,11.02-2.46
		c2.57-1.89,3.85-4.99,3.85-9.29c0-4.25-1.28-7.35-3.85-9.29c-2.21-1.64-5.88-2.46-11.02-2.46h-27.46V511.08z"/>
	<path class="st8" d="M1190.85,446.37l-8.85,20.3l-1.52-1.01c0.04-0.42,0.05-0.76,0.05-1.01c0-1.43-1.05-2.97-3.15-4.61
		c-6.44-5.22-14-7.83-22.69-7.83c-3.83,0-7.22,0.55-10.15,1.64c-2.14,0.84-3.86,2.1-5.18,3.79c-1.32,1.68-1.98,3.51-1.98,5.49
		c0,3.24,1.68,5.45,5.05,6.63c1.74,0.59,5.46,1.22,11.18,1.89l8.52,1.01c5.07,0.63,9.16,1.49,12.29,2.59
		c3.13,1.09,5.91,2.63,8.33,4.61c2.46,2.06,4.4,4.78,5.83,8.14c1.43,3.37,2.14,6.96,2.14,10.79c0,6.06-1.68,11.45-5.05,16.16
		c-3.04,4.29-7.76,7.47-14.17,9.53c-4.78,1.56-9.9,2.33-15.36,2.33c-9.81,0-19.48-2.74-29.04-8.21c-2.03-1.09-3.24-1.64-3.64-1.64
		c-0.47,0-1.21,0.46-2.22,1.39l-1.57-0.95l8.03-21.16l1.57,0.88c0,0.38,0,0.65,0,0.82c0,1.89,0.78,3.64,2.33,5.24
		c2.35,2.44,5.99,4.55,10.91,6.32c4.92,1.77,9.59,2.65,14,2.65c4.81,0,8.92-0.95,12.32-2.84c1.88-1.05,3.38-2.45,4.5-4.19
		c1.12-1.74,1.68-3.56,1.68-5.45c0-2.86-1.32-4.9-3.96-6.12c-1.85-0.84-5.57-1.62-11.18-2.33l-8.36-1.01
		c-5.61-0.67-9.57-1.32-11.89-1.93c-2.32-0.61-4.63-1.59-6.95-2.94c-3.29-1.9-5.88-4.74-7.76-8.53c-1.7-3.41-2.55-7.33-2.55-11.76
		c0-7.29,2.15-13.32,6.46-18.08c5.64-6.28,14.11-9.42,25.4-9.42c4.74,0,9.15,0.56,13.24,1.68c4.09,1.12,9.19,3.18,15.3,6.18
		c2.1,0.97,3.38,1.46,3.85,1.46c0.76,0,1.65-0.49,2.66-1.46L1190.85,446.37z"/>
	<path class="st8" d="M1276.29,453.28v65.38c0,1.31,0.25,2.3,0.76,2.97c0.51,0.67,1.41,1.22,2.71,1.64v2.02h-23.12v-2.02
		c1.3-0.42,2.21-0.97,2.71-1.64c0.51-0.67,0.76-1.66,0.76-2.97v-65.38h-23.01c-1.09,0-1.92,0.29-2.5,0.87
		c-0.58,0.58-1.05,1.64-1.41,3.18h-1.74v-22.3h1.74c0.4,1.53,0.88,2.59,1.44,3.17c0.56,0.58,1.38,0.87,2.47,0.87h62.14
		c1.12,0,1.97-0.29,2.55-0.87c0.58-0.58,1.05-1.64,1.41-3.17h1.74v22.3h-1.74c-0.36-1.54-0.83-2.6-1.41-3.18
		c-0.58-0.58-1.43-0.87-2.55-0.87H1276.29z"/>
	<path class="st8" d="M1421.06,445.7v48.32c0,9.14-1.45,15.98-4.34,20.53c-5.21,8.17-15.97,12.25-32.29,12.25
		c-11.79,0-20.82-2.21-27.08-6.63c-3.66-2.57-6.19-6.06-7.6-10.49c-1.38-4.38-2.06-9.6-2.06-15.67V445.7c0-1.3-0.25-2.29-0.76-2.97
		c-0.51-0.67-1.41-1.22-2.71-1.64v-2.02h23.12v2.02c-1.28,0.38-2.18,0.92-2.7,1.61s-0.77,1.7-0.77,3v43.02
		c0,4.97,0.23,8.64,0.71,11.02c0.47,2.38,1.36,4.37,2.66,5.97c3.47,4.29,9.41,6.44,17.8,6.44c8.43,0,14.38-2.15,17.86-6.44
		c1.27-1.6,2.13-3.59,2.6-5.97c0.47-2.38,0.71-6.05,0.71-11.02V445.7c0-1.3-0.25-2.29-0.76-2.97c-0.51-0.67-1.41-1.22-2.71-1.64
		v-2.02h21.82v2.02c-1.3,0.42-2.21,0.97-2.71,1.64C1421.31,443.41,1421.06,444.4,1421.06,445.7z"/>
	<path class="st8" d="M1473.18,518.66V445.7c0-1.3-0.25-2.29-0.76-2.97c-0.51-0.67-1.41-1.22-2.71-1.64v-2.02h41.33
		c9.05,0,16,1.2,20.85,3.6c6.95,3.5,12.09,9.27,15.42,17.31c2.64,6.32,3.96,13.71,3.96,22.17c0,14.87-3.93,26.19-11.78,33.99
		c-3.29,3.28-7.15,5.63-11.57,7.04c-4.42,1.41-10.05,2.12-16.89,2.12h-41.33v-2.02c1.3-0.42,2.21-0.97,2.71-1.64
		C1472.92,520.96,1473.18,519.97,1473.18,518.66z M1489.35,511.08h20.32c6.48,0,11.36-1.03,14.62-3.1
		c6.99-4.42,10.49-13.03,10.49-25.84c0-9.26-1.88-16.36-5.65-21.29c-2.1-2.74-4.64-4.68-7.61-5.84c-2.97-1.16-6.92-1.74-11.84-1.74
		h-20.32V511.08z"/>
	<path class="st8" d="M1599.71,518.66v-73.02c0-1.26-0.25-2.23-0.76-2.91c-0.51-0.67-1.41-1.22-2.71-1.64v-2.02h23.12v2.02
		c-1.3,0.38-2.21,0.92-2.71,1.61s-0.76,1.67-0.76,2.94v73.02c0,1.31,0.26,2.31,0.79,3c0.52,0.69,1.42,1.23,2.69,1.61v2.02h-23.12
		v-2.02c1.3-0.42,2.21-0.97,2.71-1.64C1599.45,520.96,1599.71,519.97,1599.71,518.66z"/>
	<path class="st8" d="M1706.72,437.55c12.92,0,23.17,4.06,30.74,12.19c8,8.51,12,19.5,12,32.97c0,8.25-1.92,15.96-5.76,23.12
		c-7.49,13.98-19.79,20.97-36.87,20.97c-12.82,0-23.01-4.06-30.57-12.19c-4.06-4.34-7.13-9.54-9.23-15.6
		c-1.85-5.35-2.77-10.97-2.77-16.87c0-8.63,1.9-16.53,5.7-23.69C1677.23,444.78,1689.49,437.81,1706.72,437.55z M1706.78,452.21
		c-7.06,0-12.95,2.44-17.66,7.32c-5.58,5.76-8.37,13.31-8.37,22.65c0,9.34,2.79,16.89,8.37,22.65c4.71,4.88,10.63,7.32,17.77,7.32
		c7.13,0,13.04-2.44,17.71-7.32c2.79-2.9,4.92-6.46,6.41-10.66c1.3-3.74,1.96-7.61,1.96-11.61c0-9.76-2.79-17.44-8.37-23.03
		C1719.85,454.73,1713.91,452.29,1706.78,452.21z"/>
</g>
</svg>
