<?xml version="1.0" encoding="utf-8"?>
<!-- Generator: Adobe Illustrator 24.0.2, SVG Export Plug-In . SVG Version: 6.00 Build 0)  -->
<svg version="1.1" id="Layer_1" xmlns="http://www.w3.org/2000/svg" xmlns:xlink="http://www.w3.org/1999/xlink" x="0px" y="0px"
	 viewBox="0 0 589.8 701.6" style="enable-background:new 0 0 589.8 701.6;" xml:space="preserve">
<style type="text/css">
	.st0{fill:#C0151B;}
	.st1{fill:#00ACDF;}
</style>
<g>
	<g>
		<g>
			<path class="st0" d="M470.7,240.2c-45.3-53-102.8-60.9-189.3-61.2v81.2c61.3-1.4,143.4-5.1,143.4,139.5
				c0,213.4-176.7,117.6-252,136.5c-23.9,6-49.4,18.7-77.2,41.6c-1.4,1.2-19.6,18-18.1,17.1c127.8-73.2,210.6,86,354.7-2.3
				C544,524.1,540.3,321.8,470.7,240.2z"/>
			<path class="st1" d="M400.6,485c-64,26.7-102.1,25.7-133.5,21.5V260.3V179c-28.3,0.1-59.5,0-94.3,0v329.5
				c-20.6,7.5-45,21.1-76.5,45.1c-0.8,0.7-8.5,6.3-7.6,5.8C240.6,470.8,295.4,586.2,400.6,485z"/>
			<path class="st1" d="M267.2,153.7V59.4c-28.3,0-59.5,0-94.3,0v94.4L267.2,153.7L267.2,153.7z"/>
		</g>
	</g>
</g>
</svg>
