<?xml version="1.0" encoding="utf-8"?>
<!-- Generator: Adobe Illustrator 24.0.2, SVG Export Plug-In . SVG Version: 6.00 Build 0)  -->
<svg version="1.1" id="Layer_1" xmlns="http://www.w3.org/2000/svg" xmlns:xlink="http://www.w3.org/1999/xlink" x="0px" y="0px"
	 viewBox="0 0 2287.15 616.85" style="enable-background:new 0 0 2287.15 616.85;" xml:space="preserve">
<style type="text/css">
	.st0{fill:url(#SVGID_1_);}
	.st1{fill:url(#SVGID_2_);}
	.st2{fill:url(#SVGID_3_);}
	.st3{fill:url(#SVGID_4_);}
	.st4{fill:url(#SVGID_5_);}
	.st5{fill:url(#SVGID_6_);}
	.st6{fill:url(#SVGID_7_);}
	.st7{fill:url(#SVGID_8_);}
	.st8{fill:#061322;}
	.st9{fill:url(#SVGID_9_);}
	.st10{fill:url(#SVGID_10_);}
</style>
<g>
	<g>
		<g>
			<radialGradient id="SVGID_1_" cx="349.127" cy="364.9537" r="220.9321" gradientUnits="userSpaceOnUse">
				<stop  offset="0" style="stop-color:#FFFFFF"/>
				<stop  offset="0.3404" style="stop-color:#EC1B2E"/>
				<stop  offset="1" style="stop-color:#93070A"/>
			</radialGradient>
			<path class="st0" d="M521.03,205.62c-45.32-53.01-102.83-60.86-189.26-61.23v81.16c61.3-1.36,143.41-5.14,143.41,139.53
				c0,213.42-176.71,117.57-251.99,136.46c-23.92,6.01-49.36,18.67-77.2,41.63c-1.39,1.15-19.62,18.02-18.06,17.13
				c127.77-73.19,210.65,86.05,354.69-2.29C594.32,489.5,590.61,287.19,521.03,205.62z"/>
			<radialGradient id="SVGID_2_" cx="294.9939" cy="334.6289" r="173.9396" gradientUnits="userSpaceOnUse">
				<stop  offset="0.3404" style="stop-color:#6D6E70"/>
				<stop  offset="0.6809" style="stop-color:#061322"/>
				<stop  offset="1" style="stop-color:#404041"/>
			</radialGradient>
			<path class="st1" d="M450.95,450.42c-64.04,26.68-102.06,25.73-133.49,21.45V225.76v-81.37c-28.29,0.1-59.51,0-94.27,0v329.53
				c-20.6,7.47-45.01,21.14-76.46,45.09c-0.85,0.66-8.52,6.35-7.6,5.8C290.9,436.27,345.72,551.66,450.95,450.42z"/>
			
				<radialGradient id="SVGID_3_" cx="295.0617" cy="341.3376" r="173.9396" gradientTransform="matrix(1 0 0 0.2956 0 -19.8834)" gradientUnits="userSpaceOnUse">
				<stop  offset="0.3404" style="stop-color:#6D6E70"/>
				<stop  offset="0.6809" style="stop-color:#061322"/>
				<stop  offset="1" style="stop-color:#404041"/>
			</radialGradient>
			<path class="st2" d="M317.53,119.17V24.79c-28.29,0.03-59.51,0-94.27,0v94.38H317.53z"/>
		</g>
		<g>
			<g>
				<linearGradient id="SVGID_4_" gradientUnits="userSpaceOnUse" x1="376.1857" y1="114.0496" x2="376.1857" y2="615.35">
					<stop  offset="0" style="stop-color:#FFFFFF"/>
					<stop  offset="0.4833" style="stop-color:#EC1B2E"/>
					<stop  offset="1" style="stop-color:#93070A"/>
				</linearGradient>
				<path class="st3" d="M187.36,530.67c14.66-8.81,29.18-14.98,43.84-18.67c6.23-1.56,13.78-2.32,23.06-2.32
					c78.53,0,237.07,60,237.07-144.59c0-132.74-67.16-150.64-132.87-150.64c-3.55,0-7.06,0.04-10.53,0.11v-59.29
					c81.4,1.11,130.91,11.28,170.3,57.36c65.51,76.79,69.73,271.44-35.87,336.2C364.99,620.82,290.9,518.42,187.36,530.67z"/>
			</g>
			<g>
				<linearGradient id="SVGID_5_" gradientUnits="userSpaceOnUse" x1="264.9353" y1="114.05" x2="264.9353" y2="615.3455">
					<stop  offset="0" style="stop-color:#FFFFFF"/>
					<stop  offset="0.3404" style="stop-color:#061322"/>
					<stop  offset="0.6809" style="stop-color:#58595B"/>
					<stop  offset="1" style="stop-color:#404041"/>
				</linearGradient>
				<path class="st4" d="M301.3,480.89c-24.65-2.73-46.78-4.47-72.72-1.25V155.18c52.32,0.03,60.07,0.05,72.72,0.02V480.89z"/>
			</g>
		</g>
		<g>
			<g>
				<linearGradient id="SVGID_6_" gradientUnits="userSpaceOnUse" x1="486.7617" y1="443.015" x2="400.5399" y2="-31.2074">
					<stop  offset="0" style="stop-color:#FFFFFF"/>
					<stop  offset="0.075" style="stop-color:#FDE1E4"/>
					<stop  offset="0.2384" style="stop-color:#F6969F"/>
					<stop  offset="0.4767" style="stop-color:#EC1E31"/>
					<stop  offset="0.4833" style="stop-color:#EC1B2E"/>
					<stop  offset="1" style="stop-color:#93070A"/>
				</linearGradient>
				<path class="st5" d="M491.33,365.09c0,0.41-0.01,0.81-0.01,1.22c24.42-4.8,48.86-9.58,73.3-14.42
					c-2.53-54.93-19.13-107.31-46.39-139.27c-39.39-46.08-88.9-56.26-170.3-57.36v59.29c3.47-0.07,6.99-0.11,10.53-0.11
					C424.17,214.45,491.33,232.34,491.33,365.09z"/>
			</g>
			<g>
				<linearGradient id="SVGID_7_" gradientUnits="userSpaceOnUse" x1="299.0731" y1="477.1352" x2="212.8535" y2="2.9252">
					<stop  offset="0" style="stop-color:#FFFFFF"/>
					<stop  offset="0.0811" style="stop-color:#C3C6CA"/>
					<stop  offset="0.1799" style="stop-color:#80878F"/>
					<stop  offset="0.2696" style="stop-color:#4C5560"/>
					<stop  offset="0.3469" style="stop-color:#26313E"/>
					<stop  offset="0.4088" style="stop-color:#0F1B2A"/>
					<stop  offset="0.4476" style="stop-color:#061322"/>
					<stop  offset="0.6809" style="stop-color:#58595B"/>
					<stop  offset="1" style="stop-color:#404041"/>
				</linearGradient>
				<path class="st6" d="M301.3,406.22V155.2c-12.65,0.03-20.4,0.01-72.72-0.02v268.38C252.74,417.53,276.98,411.77,301.3,406.22z"
					/>
			</g>
			<g>
				<linearGradient id="SVGID_8_" gradientUnits="userSpaceOnUse" x1="277.5673" y1="140.1924" x2="247.6092" y2="-24.5779">
					<stop  offset="0" style="stop-color:#FFFFFF"/>
					<stop  offset="0.0811" style="stop-color:#C3C6CA"/>
					<stop  offset="0.1799" style="stop-color:#80878F"/>
					<stop  offset="0.2696" style="stop-color:#4C5560"/>
					<stop  offset="0.3469" style="stop-color:#26313E"/>
					<stop  offset="0.4088" style="stop-color:#0F1B2A"/>
					<stop  offset="0.4476" style="stop-color:#061322"/>
					<stop  offset="0.6809" style="stop-color:#58595B"/>
					<stop  offset="1" style="stop-color:#404041"/>
				</linearGradient>
				<path class="st7" d="M301.36,109.36V32.77c-12.65,0.01-20.4,0-72.72-0.01v76.6H301.36z"/>
			</g>
		</g>
	</g>
</g>
<g>
	<g>
		<path class="st8" d="M875.35,245.17v175.47h-73.22V174.47h95.4c41.85,0,74.61,9.5,98.29,28.49c28.13,22.73,42.2,53.56,42.2,92.52
			c0,37.27-12.02,67.71-36.07,91.26c-24.04,23.56-55.01,35.34-92.88,35.34c-4.45,0-11.73-0.23-21.82-0.72v-72.32h11.73
			c42.68,0,64.02-17.85,64.02-53.56c0-33.53-20.98-50.31-62.93-50.31H875.35z"/>
		<path class="st8" d="M1145.69,174.47v246.18h-73.22V174.47H1145.69z"/>
		<path class="st8" d="M1299.17,282.67h69.8c15.02,18.64,22.54,38.29,22.54,58.97c0,24.06-8.81,44.25-26.42,60.6
			c-17.62,16.36-39.29,24.52-65.01,24.52c-33.42,0-61.8-12.67-85.12-38.04c-23.33-25.37-34.99-56.27-34.99-92.7
			c0-36.56,11.88-66.97,35.62-91.27c23.74-24.28,53.41-36.43,89-36.43c12.14,0,25.61,2.47,40.39,7.39v73.22
			c-11.55-5.41-22.07-8.11-31.56-8.11c-17.2,0-31.23,5.35-42.12,16.06c-10.88,10.69-16.32,24.58-16.32,41.66
			c0,17.44,5.05,31.25,15.14,41.48c10.11,10.22,23.75,15.32,40.94,15.32c10.94,0,16.41-3.19,16.41-9.56c0-4.8-3.61-7.21-10.81-7.21
			h-17.5V282.67z"/>
		<path class="st8" d="M1494.49,174.47v246.18h-73.22V174.47H1494.49z"/>
		<path class="st8" d="M1650.85,245.17v175.47h-73.22V245.17h-56.09v-70.7h185.22v70.7H1650.85z"/>
		<path class="st8" d="M1823.08,297.1v64.93h-21.11v58.61h-73.22V264.11c0-30.31,8.27-53.85,24.79-70.61
			c16.52-16.78,39.76-25.16,69.71-25.16c28.84,0,50.2,7.61,64.02,22.82c13.82,15.21,20.73,38.68,20.73,70.43v159.06h-73.22V266.46
			c0-9.63-1.15-16.29-3.42-20.03c-2.29-3.72-6.37-5.58-12.26-5.58c-11.42,0-17.13,8.54-17.13,25.62v30.65H1823.08z"/>
		<path class="st8" d="M1947.34,174.47h73.22v146.27c0,11.42,1.82,19.03,5.5,22.8c3.67,3.8,10.92,5.69,21.73,5.69h3.79v71.41h-19.48
			c-26.69,0-47.49-7.79-62.41-23.36c-14.91-15.56-22.36-37.18-22.36-64.82V174.47z"/>
		<linearGradient id="SVGID_9_" gradientUnits="userSpaceOnUse" x1="686.0466" y1="199.0488" x2="759.2662" y2="199.0488">
			<stop  offset="0" style="stop-color:#FFFFFF"/>
			<stop  offset="8.095575e-03" style="stop-color:#FDE6E8"/>
			<stop  offset="0.0274" style="stop-color:#F9B1B8"/>
			<stop  offset="0.047" style="stop-color:#F5838D"/>
			<stop  offset="0.0665" style="stop-color:#F25E6B"/>
			<stop  offset="0.0857" style="stop-color:#EF4050"/>
			<stop  offset="0.1047" style="stop-color:#ED2C3D"/>
			<stop  offset="0.1235" style="stop-color:#EC1F32"/>
			<stop  offset="0.1415" style="stop-color:#EC1B2E"/>
			<stop  offset="0.3173" style="stop-color:#E01829"/>
			<stop  offset="0.6378" style="stop-color:#BF111C"/>
			<stop  offset="1" style="stop-color:#93070A"/>
		</linearGradient>
		<rect x="686.05" y="174.44" class="st9" width="73.22" height="49.21"/>
		<linearGradient id="SVGID_10_" gradientUnits="userSpaceOnUse" x1="686.0466" y1="331.9291" x2="759.2662" y2="331.9291">
			<stop  offset="0" style="stop-color:#FFFFFF"/>
			<stop  offset="8.095575e-03" style="stop-color:#FDE6E8"/>
			<stop  offset="0.0274" style="stop-color:#F9B1B8"/>
			<stop  offset="0.047" style="stop-color:#F5838D"/>
			<stop  offset="0.0665" style="stop-color:#F25E6B"/>
			<stop  offset="0.0857" style="stop-color:#EF4050"/>
			<stop  offset="0.1047" style="stop-color:#ED2C3D"/>
			<stop  offset="0.1235" style="stop-color:#EC1F32"/>
			<stop  offset="0.1415" style="stop-color:#EC1B2E"/>
			<stop  offset="0.3173" style="stop-color:#E01829"/>
			<stop  offset="0.6378" style="stop-color:#BF111C"/>
			<stop  offset="1" style="stop-color:#93070A"/>
		</linearGradient>
		<rect x="686.05" y="243.24" class="st10" width="73.22" height="177.38"/>
	</g>
</g>
<g>
	<path class="st8" d="M768.79,507.56l-20.89,52.8c-1.21,2.68-1.81,4.37-1.81,5.09c0,2.05,1.65,3.5,4.96,4.35v2.14h-29.42v-2.14
		c2.99-0.58,4.49-2.1,4.49-4.55c0-0.67-0.63-2.65-1.88-5.96l-26.19-67.4c-1.29-3.35-2.47-5.61-3.52-6.79
		c-1.05-1.18-2.58-1.97-4.59-2.38v-2.14h31.76v2.14c-2.81,0.63-4.22,1.94-4.22,3.95c0,1.03,0.36,2.5,1.07,4.42l18.07,48.35
		l19.56-48.62c0.85-2.1,1.27-3.48,1.27-4.15c0-2.05-1.5-3.37-4.48-3.95v-2.14h33.2v2.14c-3.03,0.8-4.55,2.25-4.55,4.35
		c0,0.71,0.38,2.05,1.14,4.02l18.65,48.35l18.01-47.55c0.94-2.36,1.41-4.13,1.41-5.29c0-1.96-1.61-3.26-4.82-3.88v-2.14h31.42v2.14
		c-2.23,0.63-3.77,1.43-4.62,2.41c-0.85,0.98-1.96,3.24-3.35,6.76l-26.19,67.4c-1.25,3.21-1.88,5.35-1.88,6.43
		c0,2.19,1.58,3.55,4.75,4.08v2.14h-29.81v-2.14c3.13-0.49,4.69-1.99,4.69-4.49c0-0.85-0.69-2.85-2.08-6.02L768.79,507.56z"/>
	<path class="st8" d="M919.55,531.85v25.03h58.77c1.34,0,2.37-0.31,3.08-0.94s1.29-1.74,1.74-3.35h2.14v23.63h-2.14
		c-0.45-1.61-1.03-2.72-1.74-3.35c-0.71-0.63-1.74-0.94-3.08-0.94h-83v-2.14c1.61-0.45,2.72-1.03,3.35-1.74
		c0.62-0.71,0.94-1.76,0.94-3.15v-77.31c0-1.38-0.31-2.43-0.94-3.15c-0.63-0.71-1.74-1.29-3.35-1.74v-2.14h81.39
		c1.34,0,2.37-0.32,3.08-0.96s1.29-1.75,1.74-3.33h2.14v23.63h-2.14c-0.45-1.59-1.03-2.7-1.74-3.33c-0.71-0.63-1.74-0.95-3.08-0.95
		h-57.16v21.69h37.08c1.34,0,2.37-0.31,3.08-0.94c0.71-0.62,1.29-1.74,1.74-3.35h2.14v23.09h-2.14c-0.45-1.56-1.03-2.67-1.74-3.31
		c-0.71-0.65-1.74-0.97-3.08-0.97H919.55z"/>
	<path class="st8" d="M1121.99,524.09c10.26,3.88,15.4,11.07,15.4,21.55c0,8.35-2.99,14.88-8.97,19.61
		c-3.04,2.37-6.55,4.07-10.54,5.12c-3.99,1.05-8.94,1.57-14.83,1.57h-62.45v-2.14c1.61-0.45,2.72-1.03,3.35-1.74
		c0.62-0.71,0.94-1.76,0.94-3.15v-77.31c0-1.38-0.31-2.43-0.94-3.15c-0.63-0.71-1.74-1.29-3.35-1.74v-2.14h61.85
		c5.93,0,10.71,0.45,14.32,1.34c3.61,0.89,6.78,2.41,9.5,4.55c5.4,4.24,8.1,10.35,8.1,18.34
		C1134.37,513.73,1130.25,520.16,1121.99,524.09z M1064.83,516.92h35.01c5.31,0,9.01-0.78,11.11-2.34c2.37-1.78,3.55-4.55,3.55-8.3
		c0-3.84-1.12-6.57-3.35-8.2c-2.23-1.63-6-2.44-11.31-2.44h-35.01V516.92z M1064.83,556.88h33.87c6.29,0,10.82-0.87,13.59-2.61
		c3.17-2.01,4.75-5.29,4.75-9.84c0-4.51-1.58-7.79-4.75-9.84c-2.72-1.74-7.25-2.61-13.59-2.61h-33.87V556.88z"/>
	<path class="st8" d="M1352.63,488.32l-10.91,21.51l-1.87-1.07c0.04-0.45,0.07-0.8,0.07-1.07c0-1.52-1.29-3.15-3.88-4.89
		c-7.94-5.53-17.27-8.3-27.98-8.3c-4.73,0-8.9,0.58-12.52,1.74c-2.63,0.89-4.76,2.23-6.39,4.01c-1.63,1.78-2.44,3.72-2.44,5.82
		c0,3.43,2.07,5.77,6.22,7.02c2.14,0.62,6.74,1.29,13.79,2.01l10.51,1.07c6.25,0.67,11.3,1.58,15.16,2.74
		c3.86,1.16,7.28,2.79,10.27,4.88c3.03,2.18,5.43,5.06,7.2,8.63c1.76,3.57,2.64,7.38,2.64,11.44c0,6.42-2.08,12.13-6.23,17.12
		c-3.75,4.55-9.57,7.92-17.47,10.1c-5.89,1.65-12.21,2.47-18.94,2.47c-12.09,0-24.03-2.9-35.81-8.7c-2.5-1.16-3.99-1.74-4.48-1.74
		c-0.58,0-1.5,0.49-2.74,1.47l-1.94-1l9.91-22.42l1.94,0.94c0,0.4,0,0.69,0,0.87c0,2.01,0.96,3.86,2.88,5.56
		c2.9,2.59,7.38,4.82,13.45,6.69c6.07,1.87,11.82,2.81,17.27,2.81c5.93,0,11-1,15.19-3c2.32-1.11,4.17-2.59,5.56-4.44
		c1.38-1.85,2.08-3.77,2.08-5.78c0-3.03-1.63-5.19-4.89-6.48c-2.28-0.89-6.87-1.71-13.79-2.47l-10.31-1.07
		c-6.92-0.71-11.8-1.39-14.66-2.04s-5.71-1.69-8.57-3.12c-4.06-2.01-7.25-5.02-9.57-9.04c-2.1-3.62-3.15-7.77-3.15-12.46
		c0-7.72,2.65-14.11,7.97-19.16c6.96-6.65,17.4-9.98,31.33-9.98c5.85,0,11.29,0.59,16.33,1.78c5.04,1.19,11.33,3.37,18.88,6.55
		c2.59,1.03,4.17,1.55,4.75,1.55c0.94,0,2.03-0.52,3.28-1.55L1352.63,488.32z"/>
	<path class="st8" d="M1458.02,495.64v69.28c0,1.38,0.31,2.43,0.94,3.15c0.62,0.71,1.74,1.29,3.35,1.74v2.14h-28.51v-2.14
		c1.61-0.45,2.72-1.03,3.35-1.74c0.62-0.71,0.94-1.76,0.94-3.15v-69.28h-28.38c-1.34,0-2.37,0.31-3.08,0.92
		c-0.71,0.61-1.29,1.73-1.74,3.37h-2.14V476.3h2.14c0.49,1.63,1.08,2.75,1.77,3.36c0.69,0.61,1.71,0.92,3.05,0.92h76.64
		c1.38,0,2.43-0.31,3.15-0.92c0.71-0.61,1.29-1.74,1.74-3.36h2.14v23.63h-2.14c-0.45-1.63-1.03-2.75-1.74-3.37
		c-0.71-0.61-1.76-0.92-3.15-0.92H1458.02z"/>
	<path class="st8" d="M1636.56,487.61v51.21c0,9.68-1.79,16.93-5.35,21.75c-6.43,8.66-19.7,12.99-39.83,12.99
		c-14.55,0-25.68-2.34-33.4-7.03c-4.51-2.72-7.63-6.43-9.37-11.11c-1.7-4.64-2.54-10.17-2.54-16.6v-51.21
		c0-1.38-0.31-2.43-0.94-3.15c-0.63-0.71-1.74-1.29-3.35-1.74v-2.14h28.51v2.14c-1.58,0.4-2.69,0.97-3.33,1.71
		c-0.64,0.74-0.96,1.8-0.96,3.18v45.58c0,5.27,0.29,9.16,0.87,11.68c0.58,2.52,1.67,4.63,3.28,6.33c4.28,4.55,11.6,6.83,21.96,6.83
		c10.4,0,17.74-2.28,22.02-6.83c1.56-1.7,2.63-3.8,3.21-6.33c0.58-2.52,0.87-6.41,0.87-11.68v-45.58c0-1.38-0.31-2.43-0.94-3.15
		s-1.74-1.29-3.35-1.74v-2.14h26.91v2.14c-1.61,0.45-2.72,1.03-3.35,1.74C1636.87,485.18,1636.56,486.22,1636.56,487.61z"/>
	<path class="st8" d="M1700.84,564.92v-77.31c0-1.38-0.31-2.43-0.94-3.15c-0.63-0.71-1.74-1.29-3.35-1.74v-2.14h50.97
		c11.16,0,19.74,1.27,25.72,3.81c8.57,3.71,14.91,9.82,19.02,18.34c3.26,6.69,4.89,14.52,4.89,23.49c0,15.75-4.85,27.76-14.53,36.01
		c-4.06,3.48-8.82,5.97-14.27,7.46c-5.45,1.5-12.39,2.24-20.83,2.24h-50.97v-2.14c1.61-0.45,2.72-1.03,3.35-1.74
		C1700.53,567.35,1700.84,566.3,1700.84,564.92z M1720.79,556.88h25.06c8,0,14-1.09,18.03-3.28c8.62-4.69,12.93-13.81,12.93-27.38
		c0-9.82-2.32-17.34-6.97-22.56c-2.59-2.9-5.72-4.96-9.38-6.19c-3.66-1.23-8.53-1.84-14.61-1.84h-25.06V556.88z"/>
	<path class="st8" d="M1856.89,564.92v-77.38c0-1.34-0.31-2.37-0.94-3.08c-0.63-0.71-1.74-1.29-3.35-1.74v-2.14h28.51v2.14
		c-1.61,0.4-2.72,0.97-3.35,1.71c-0.63,0.74-0.94,1.77-0.94,3.11v77.38c0,1.38,0.32,2.44,0.97,3.18c0.65,0.74,1.75,1.3,3.31,1.71
		v2.14h-28.51v-2.14c1.61-0.45,2.72-1.03,3.35-1.74C1856.58,567.35,1856.89,566.3,1856.89,564.92z"/>
	<path class="st8" d="M1988.88,478.97c15.94,0,28.58,4.31,37.91,12.92c9.87,9.01,14.8,20.66,14.8,34.94c0,8.75-2.37,16.91-7.1,24.5
		c-9.24,14.82-24.4,22.22-45.48,22.22c-15.81,0-28.38-4.31-37.71-12.92c-5-4.6-8.8-10.11-11.39-16.53
		c-2.28-5.67-3.42-11.62-3.42-17.87c0-9.15,2.34-17.51,7.03-25.1C1952.51,486.63,1967.63,479.24,1988.88,478.97z M1988.95,494.5
		c-8.71,0-15.97,2.58-21.78,7.76c-6.88,6.11-10.32,14.11-10.32,24c0,9.9,3.44,17.9,10.32,24c5.81,5.17,13.11,7.76,21.91,7.76
		s16.08-2.58,21.84-7.76c3.44-3.08,6.07-6.84,7.91-11.3c1.61-3.97,2.41-8.07,2.41-12.3c0-10.34-3.44-18.48-10.32-24.41
		C2005.07,497.18,1997.75,494.59,1988.95,494.5z"/>
</g>
</svg>
