<?xml version="1.0" encoding="utf-8"?>
<!-- Generator: Adobe Illustrator 24.0.2, SVG Export Plug-In . SVG Version: 6.00 Build 0)  -->
<svg version="1.1" id="Layer_1" xmlns="http://www.w3.org/2000/svg" xmlns:xlink="http://www.w3.org/1999/xlink" x="0px" y="0px"
	 viewBox="0 0 2287.1 616.8" style="enable-background:new 0 0 2287.1 616.8;" xml:space="preserve">
<style type="text/css">
	.st0{fill:url(#SVGID_1_);}
	.st1{fill:url(#SVGID_2_);}
	.st2{fill:url(#SVGID_3_);}
	.st3{fill:url(#SVGID_4_);}
	.st4{fill:url(#SVGID_5_);}
	.st5{fill:url(#SVGID_6_);}
	.st6{fill:url(#SVGID_7_);}
	.st7{fill:url(#SVGID_8_);}
	.st8{fill:#00ACDF;}
	.st9{fill:url(#SVGID_9_);}
	.st10{fill:url(#SVGID_10_);}
</style>
<g>
	<g>
		<g>
			
				<radialGradient id="SVGID_1_" cx="349.1343" cy="-255.9521" r="220.9308" gradientTransform="matrix(1 0 0 -1 0 109)" gradientUnits="userSpaceOnUse">
				<stop  offset="0" style="stop-color:#FFFFFF"/>
				<stop  offset="0.3404" style="stop-color:#EC1B2E"/>
				<stop  offset="1" style="stop-color:#93070A"/>
			</radialGradient>
			<path class="st0" d="M521,205.6c-45.3-53-102.8-60.9-189.3-61.2v81.2c61.3-1.4,143.4-5.1,143.4,139.5
				c0,213.4-176.7,117.6-252,136.5c-23.9,6-49.4,18.7-77.2,41.6c-1.4,1.2-19.6,18-18.1,17.1c127.8-73.2,210.6,86,354.7-2.3
				C594.3,489.5,590.6,287.2,521,205.6z"/>
			
				<linearGradient id="SVGID_2_" gradientUnits="userSpaceOnUse" x1="139.0536" y1="-225.6187" x2="450.95" y2="-225.6187" gradientTransform="matrix(1 0 0 -1 0 109)">
				<stop  offset="0" style="stop-color:#00BFF2"/>
				<stop  offset="0.31" style="stop-color:#0094C4"/>
				<stop  offset="0.7784" style="stop-color:#005884"/>
				<stop  offset="1" style="stop-color:#00406B"/>
			</linearGradient>
			<path class="st1" d="M451,450.4c-64,26.7-102.1,25.7-133.5,21.5V225.8v-81.4c-28.3,0.1-59.5,0-94.3,0v329.5
				c-20.6,7.5-45,21.1-76.5,45.1c-0.9,0.7-8.5,6.3-7.6,5.8C290.9,436.3,345.7,551.7,451,450.4z"/>
			
				<linearGradient id="SVGID_3_" gradientUnits="userSpaceOnUse" x1="223.26" y1="-2017.5773" x2="317.53" y2="-2017.5773" gradientTransform="matrix(1 0 0 -0.2956 0 -524.4158)">
				<stop  offset="0" style="stop-color:#00BFF2"/>
				<stop  offset="0.31" style="stop-color:#0094C4"/>
				<stop  offset="0.7784" style="stop-color:#005884"/>
				<stop  offset="1" style="stop-color:#00406B"/>
			</linearGradient>
			<path class="st2" d="M317.5,119.2V24.8c-28.3,0-59.5,0-94.3,0v94.4H317.5z"/>
		</g>
		<g>
			<g>
				
					<linearGradient id="SVGID_4_" gradientUnits="userSpaceOnUse" x1="376.1875" y1="-5.0496" x2="376.1875" y2="-506.35" gradientTransform="matrix(1 0 0 -1 0 109)">
					<stop  offset="0" style="stop-color:#FFFFFF"/>
					<stop  offset="0.4833" style="stop-color:#EC1B2E"/>
					<stop  offset="1" style="stop-color:#93070A"/>
				</linearGradient>
				<path class="st3" d="M187.4,530.7c14.7-8.8,29.2-15,43.8-18.7c6.2-1.6,13.8-2.3,23.1-2.3c78.5,0,237.1,60,237.1-144.6
					c0-132.7-67.2-150.6-132.9-150.6c-3.5,0-7.1,0-10.5,0.1v-59.3c81.4,1.1,130.9,11.3,170.3,57.4c65.5,76.8,69.7,271.4-35.9,336.2
					C365,620.8,290.9,518.4,187.4,530.7z"/>
			</g>
			<g>
				
					<linearGradient id="SVGID_5_" gradientUnits="userSpaceOnUse" x1="264.94" y1="-5.05" x2="264.94" y2="-506.3455" gradientTransform="matrix(1 0 0 -1 0 109)">
					<stop  offset="0" style="stop-color:#00BFF2"/>
					<stop  offset="0.31" style="stop-color:#0094C4"/>
					<stop  offset="0.7784" style="stop-color:#005884"/>
					<stop  offset="1" style="stop-color:#00406B"/>
				</linearGradient>
				<path class="st4" d="M301.3,480.9c-24.6-2.7-46.8-4.5-72.7-1.3V155.2c52.3,0,60.1,0.1,72.7,0V480.9z"/>
			</g>
		</g>
		<g>
			<g>
				
					<linearGradient id="SVGID_6_" gradientUnits="userSpaceOnUse" x1="486.7646" y1="-334.0145" x2="400.5428" y2="140.2079" gradientTransform="matrix(1 0 0 -1 0 109)">
					<stop  offset="0" style="stop-color:#FFFFFF"/>
					<stop  offset="7.500000e-02" style="stop-color:#FDE1E4"/>
					<stop  offset="0.2384" style="stop-color:#F6969F"/>
					<stop  offset="0.4767" style="stop-color:#EC1E31"/>
					<stop  offset="0.4833" style="stop-color:#EC1B2E"/>
					<stop  offset="1" style="stop-color:#93070A"/>
				</linearGradient>
				<path class="st5" d="M491.3,365.1c0,0.4,0,0.8,0,1.2c24.4-4.8,48.9-9.6,73.3-14.4c-2.5-54.9-19.1-107.3-46.4-139.3
					c-39.4-46.1-88.9-56.3-170.3-57.4v59.3c3.5-0.1,7-0.1,10.5-0.1C424.2,214.4,491.3,232.3,491.3,365.1z"/>
			</g>
			<g>
				
					<linearGradient id="SVGID_7_" gradientUnits="userSpaceOnUse" x1="299.077" y1="-368.1345" x2="212.8574" y2="106.0755" gradientTransform="matrix(1 0 0 -1 0 109)">
					<stop  offset="0" style="stop-color:#00BFF2"/>
					<stop  offset="0.31" style="stop-color:#0094C4"/>
					<stop  offset="0.7784" style="stop-color:#005884"/>
					<stop  offset="1" style="stop-color:#00406B"/>
				</linearGradient>
				<path class="st6" d="M301.3,406.2v-251c-12.6,0-20.4,0-72.7,0v268.4C252.7,417.5,277,411.8,301.3,406.2z"/>
			</g>
			<g>
				
					<linearGradient id="SVGID_8_" gradientUnits="userSpaceOnUse" x1="277.5685" y1="-31.1922" x2="247.6104" y2="133.5781" gradientTransform="matrix(1 0 0 -1 0 109)">
					<stop  offset="0" style="stop-color:#00BFF2"/>
					<stop  offset="0.31" style="stop-color:#0094C4"/>
					<stop  offset="0.7784" style="stop-color:#005884"/>
					<stop  offset="1" style="stop-color:#00406B"/>
				</linearGradient>
				<path class="st7" d="M301.4,109.4V32.8c-12.6,0-20.4,0-72.7,0v76.6H301.4z"/>
			</g>
		</g>
	</g>
</g>
<g>
	<g>
		<path class="st8" d="M875.3,245.2v175.5h-73.2V174.5h95.4c41.8,0,74.6,9.5,98.3,28.5c28.1,22.7,42.2,53.6,42.2,92.5
			c0,37.3-12,67.7-36.1,91.3c-24,23.6-55,35.3-92.9,35.3c-4.5,0-11.7-0.2-21.8-0.7V349H899c42.7,0,64-17.9,64-53.6
			c0-33.5-21-50.3-62.9-50.3L875.3,245.2L875.3,245.2z"/>
		<path class="st8" d="M1145.7,174.5v246.2h-73.2V174.5H1145.7z"/>
		<path class="st8" d="M1299.2,282.7h69.8c15,18.6,22.5,38.3,22.5,59c0,24.1-8.8,44.3-26.4,60.6c-17.6,16.4-39.3,24.5-65,24.5
			c-33.4,0-61.8-12.7-85.1-38c-23.3-25.4-35-56.3-35-92.7c0-36.6,11.9-67,35.6-91.3c23.7-24.3,53.4-36.4,89-36.4
			c12.1,0,25.6,2.5,40.4,7.4v73.2c-11.6-5.4-22.1-8.1-31.6-8.1c-17.2,0-31.2,5.4-42.1,16.1c-10.9,10.7-16.3,24.6-16.3,41.7
			c0,17.4,5.1,31.3,15.1,41.5c10.1,10.2,23.8,15.3,40.9,15.3c10.9,0,16.4-3.2,16.4-9.6c0-4.8-3.6-7.2-10.8-7.2h-17.5L1299.2,282.7
			L1299.2,282.7L1299.2,282.7z"/>
		<path class="st8" d="M1494.5,174.5v246.2h-73.2V174.5H1494.5z"/>
		<path class="st8" d="M1650.8,245.2v175.5h-73.2V245.2h-56.1v-70.7h185.2v70.7H1650.8z"/>
		<path class="st8" d="M1823.1,297.1V362H1802v58.6h-73.2V264.1c0-30.3,8.3-53.9,24.8-70.6c16.5-16.8,39.8-25.2,69.7-25.2
			c28.8,0,50.2,7.6,64,22.8c13.8,15.2,20.7,38.7,20.7,70.4v159.1h-73.2V266.5c0-9.6-1.2-16.3-3.4-20c-2.3-3.7-6.4-5.6-12.3-5.6
			c-11.4,0-17.1,8.5-17.1,25.6v30.6L1823.1,297.1L1823.1,297.1z"/>
		<path class="st8" d="M1947.3,174.5h73.2v146.3c0,11.4,1.8,19,5.5,22.8c3.7,3.8,10.9,5.7,21.7,5.7h3.8v71.4h-19.5
			c-26.7,0-47.5-7.8-62.4-23.4c-14.9-15.6-22.4-37.2-22.4-64.8L1947.3,174.5L1947.3,174.5z"/>
		
			<linearGradient id="SVGID_9_" gradientUnits="userSpaceOnUse" x1="686.05" y1="-90.045" x2="759.27" y2="-90.045" gradientTransform="matrix(1 0 0 -1 0 109)">
			<stop  offset="0" style="stop-color:#FFFFFF"/>
			<stop  offset="8.095575e-03" style="stop-color:#FDE6E8"/>
			<stop  offset="2.740000e-02" style="stop-color:#F9B1B8"/>
			<stop  offset="4.700000e-02" style="stop-color:#F5838D"/>
			<stop  offset="6.650000e-02" style="stop-color:#F25E6B"/>
			<stop  offset="8.570000e-02" style="stop-color:#EF4050"/>
			<stop  offset="0.1047" style="stop-color:#ED2C3D"/>
			<stop  offset="0.1235" style="stop-color:#EC1F32"/>
			<stop  offset="0.1415" style="stop-color:#EC1B2E"/>
			<stop  offset="0.3173" style="stop-color:#E01829"/>
			<stop  offset="0.6378" style="stop-color:#BF111C"/>
			<stop  offset="1" style="stop-color:#93070A"/>
		</linearGradient>
		<rect x="686" y="174.4" class="st9" width="73.2" height="49.2"/>
		
			<linearGradient id="SVGID_10_" gradientUnits="userSpaceOnUse" x1="686.05" y1="-222.93" x2="759.27" y2="-222.93" gradientTransform="matrix(1 0 0 -1 0 109)">
			<stop  offset="0" style="stop-color:#FFFFFF"/>
			<stop  offset="8.095575e-03" style="stop-color:#FDE6E8"/>
			<stop  offset="2.740000e-02" style="stop-color:#F9B1B8"/>
			<stop  offset="4.700000e-02" style="stop-color:#F5838D"/>
			<stop  offset="6.650000e-02" style="stop-color:#F25E6B"/>
			<stop  offset="8.570000e-02" style="stop-color:#EF4050"/>
			<stop  offset="0.1047" style="stop-color:#ED2C3D"/>
			<stop  offset="0.1235" style="stop-color:#EC1F32"/>
			<stop  offset="0.1415" style="stop-color:#EC1B2E"/>
			<stop  offset="0.3173" style="stop-color:#E01829"/>
			<stop  offset="0.6378" style="stop-color:#BF111C"/>
			<stop  offset="1" style="stop-color:#93070A"/>
		</linearGradient>
		<rect x="686" y="243.2" class="st10" width="73.2" height="177.4"/>
	</g>
</g>
<g>
	<path class="st8" d="M768.8,507.6l-20.9,52.8c-1.2,2.7-1.8,4.4-1.8,5.1c0,2,1.7,3.5,5,4.3v2.1h-29.4v-2.1c3-0.6,4.5-2.1,4.5-4.5
		c0-0.7-0.6-2.7-1.9-6L698,491.9c-1.3-3.4-2.5-5.6-3.5-6.8c-1-1.2-2.6-2-4.6-2.4v-2.1h31.8v2.1c-2.8,0.6-4.2,1.9-4.2,4
		c0,1,0.4,2.5,1.1,4.4l18.1,48.4l19.6-48.6c0.8-2.1,1.3-3.5,1.3-4.1c0-2-1.5-3.4-4.5-4v-2.1h33.2v2.1c-3,0.8-4.5,2.3-4.5,4.4
		c0,0.7,0.4,2,1.1,4l18.7,48.4l18-47.5c0.9-2.4,1.4-4.1,1.4-5.3c0-2-1.6-3.3-4.8-3.9v-2.1h31.4v2.1c-2.2,0.6-3.8,1.4-4.6,2.4
		s-2,3.2-3.3,6.8l-26.2,67.4c-1.3,3.2-1.9,5.3-1.9,6.4c0,2.2,1.6,3.5,4.8,4.1v2.1h-29.8v-2.1c3.1-0.5,4.7-2,4.7-4.5
		c0-0.8-0.7-2.8-2.1-6L768.8,507.6z"/>
	<path class="st8" d="M919.5,531.8v25h58.8c1.3,0,2.4-0.3,3.1-0.9s1.3-1.7,1.7-3.3h2.1v23.6h-2.1c-0.5-1.6-1-2.7-1.7-3.3
		c-0.7-0.6-1.7-0.9-3.1-0.9h-83v-2.1c1.6-0.5,2.7-1,3.3-1.7c0.6-0.7,0.9-1.8,0.9-3.2v-77.3c0-1.4-0.3-2.4-0.9-3.1
		c-0.6-0.7-1.7-1.3-3.3-1.7v-2.1h81.4c1.3,0,2.4-0.3,3.1-1s1.3-1.8,1.7-3.3h2.1v23.6h-2.1c-0.5-1.6-1-2.7-1.7-3.3
		c-0.7-0.6-1.7-1-3.1-1h-57.2v21.7h37.1c1.3,0,2.4-0.3,3.1-0.9c0.7-0.6,1.3-1.7,1.7-3.3h2.1v23.1h-2.1c-0.5-1.6-1-2.7-1.7-3.3
		c-0.7-0.7-1.7-1-3.1-1L919.5,531.8L919.5,531.8L919.5,531.8z"/>
	<path class="st8" d="M1122,524.1c10.3,3.9,15.4,11.1,15.4,21.5c0,8.3-3,14.9-9,19.6c-3,2.4-6.6,4.1-10.5,5.1s-8.9,1.6-14.8,1.6
		h-62.4v-2.1c1.6-0.5,2.7-1,3.3-1.7c0.6-0.7,0.9-1.8,0.9-3.2v-77.3c0-1.4-0.3-2.4-0.9-3.1c-0.6-0.7-1.7-1.3-3.3-1.7v-2.1h61.8
		c5.9,0,10.7,0.5,14.3,1.3c3.6,0.9,6.8,2.4,9.5,4.5c5.4,4.2,8.1,10.4,8.1,18.3C1134.4,513.7,1130.3,520.2,1122,524.1z M1064.8,516.9
		h35c5.3,0,9-0.8,11.1-2.3c2.4-1.8,3.6-4.5,3.6-8.3c0-3.8-1.1-6.6-3.3-8.2s-6-2.4-11.3-2.4h-35V516.9z M1064.8,556.9h33.9
		c6.3,0,10.8-0.9,13.6-2.6c3.2-2,4.8-5.3,4.8-9.8c0-4.5-1.6-7.8-4.8-9.8c-2.7-1.7-7.3-2.6-13.6-2.6h-33.9V556.9z"/>
	<path class="st8" d="M1352.6,488.3l-10.9,21.5l-1.9-1.1c0-0.5,0.1-0.8,0.1-1.1c0-1.5-1.3-3.1-3.9-4.9c-7.9-5.5-17.3-8.3-28-8.3
		c-4.7,0-8.9,0.6-12.5,1.7c-2.6,0.9-4.8,2.2-6.4,4s-2.4,3.7-2.4,5.8c0,3.4,2.1,5.8,6.2,7c2.1,0.6,6.7,1.3,13.8,2l10.5,1.1
		c6.3,0.7,11.3,1.6,15.2,2.7s7.3,2.8,10.3,4.9c3,2.2,5.4,5.1,7.2,8.6c1.8,3.6,2.6,7.4,2.6,11.4c0,6.4-2.1,12.1-6.2,17.1
		c-3.8,4.5-9.6,7.9-17.5,10.1c-5.9,1.7-12.2,2.5-18.9,2.5c-12.1,0-24-2.9-35.8-8.7c-2.5-1.2-4-1.7-4.5-1.7c-0.6,0-1.5,0.5-2.7,1.5
		l-1.9-1l9.9-22.4l1.9,0.9c0,0.4,0,0.7,0,0.9c0,2,1,3.9,2.9,5.6c2.9,2.6,7.4,4.8,13.4,6.7s11.8,2.8,17.3,2.8c5.9,0,11-1,15.2-3
		c2.3-1.1,4.2-2.6,5.6-4.4c1.4-1.8,2.1-3.8,2.1-5.8c0-3-1.6-5.2-4.9-6.5c-2.3-0.9-6.9-1.7-13.8-2.5l-10.3-1.1
		c-6.9-0.7-11.8-1.4-14.7-2s-5.7-1.7-8.6-3.1c-4.1-2-7.3-5-9.6-9c-2.1-3.6-3.2-7.8-3.2-12.5c0-7.7,2.7-14.1,8-19.2
		c7-6.6,17.4-10,31.3-10c5.8,0,11.3,0.6,16.3,1.8c5,1.2,11.3,3.4,18.9,6.5c2.6,1,4.2,1.5,4.8,1.5c0.9,0,2-0.5,3.3-1.5L1352.6,488.3z
		"/>
	<path class="st8" d="M1458,495.6v69.3c0,1.4,0.3,2.4,0.9,3.2c0.6,0.7,1.7,1.3,3.3,1.7v2.1h-28.5v-2.1c1.6-0.5,2.7-1,3.3-1.7
		c0.6-0.7,0.9-1.8,0.9-3.2v-69.3h-28.4c-1.3,0-2.4,0.3-3.1,0.9c-0.7,0.6-1.3,1.7-1.7,3.4h-2.1v-23.6h2.1c0.5,1.6,1.1,2.8,1.8,3.4
		c0.7,0.6,1.7,0.9,3.1,0.9h76.6c1.4,0,2.4-0.3,3.2-0.9c0.7-0.6,1.3-1.7,1.7-3.4h2.1v23.6h-2.1c-0.4-1.6-1-2.8-1.7-3.4
		c-0.7-0.6-1.8-0.9-3.2-0.9L1458,495.6L1458,495.6z"/>
	<path class="st8" d="M1636.6,487.6v51.2c0,9.7-1.8,16.9-5.3,21.8c-6.4,8.7-19.7,13-39.8,13c-14.6,0-25.7-2.3-33.4-7
		c-4.5-2.7-7.6-6.4-9.4-11.1c-1.7-4.6-2.5-10.2-2.5-16.6v-51.2c0-1.4-0.3-2.4-0.9-3.1c-0.6-0.7-1.7-1.3-3.3-1.7v-2.1h28.5v2.1
		c-1.6,0.4-2.7,1-3.3,1.7s-1,1.8-1,3.2v45.6c0,5.3,0.3,9.2,0.9,11.7s1.7,4.6,3.3,6.3c4.3,4.5,11.6,6.8,22,6.8
		c10.4,0,17.7-2.3,22-6.8c1.6-1.7,2.6-3.8,3.2-6.3c0.6-2.5,0.9-6.4,0.9-11.7v-45.6c0-1.4-0.3-2.4-0.9-3.1s-1.7-1.3-3.3-1.7v-2.1
		h26.9v2.1c-1.6,0.5-2.7,1-3.3,1.7C1636.9,485.2,1636.6,486.2,1636.6,487.6z"/>
	<path class="st8" d="M1700.8,564.9v-77.3c0-1.4-0.3-2.4-0.9-3.1c-0.6-0.7-1.7-1.3-3.3-1.7v-2.1h51c11.2,0,19.7,1.3,25.7,3.8
		c8.6,3.7,14.9,9.8,19,18.3c3.3,6.7,4.9,14.5,4.9,23.5c0,15.8-4.8,27.8-14.5,36c-4.1,3.5-8.8,6-14.3,7.5c-5.4,1.5-12.4,2.2-20.8,2.2
		h-51v-2.1c1.6-0.5,2.7-1,3.3-1.7C1700.5,567.3,1700.8,566.3,1700.8,564.9z M1720.8,556.9h25.1c8,0,14-1.1,18-3.3
		c8.6-4.7,12.9-13.8,12.9-27.4c0-9.8-2.3-17.3-7-22.6c-2.6-2.9-5.7-5-9.4-6.2s-8.5-1.8-14.6-1.8h-25.1L1720.8,556.9L1720.8,556.9z"
		/>
	<path class="st8" d="M1856.9,564.9v-77.4c0-1.3-0.3-2.4-0.9-3.1c-0.6-0.7-1.7-1.3-3.3-1.7v-2.1h28.5v2.1c-1.6,0.4-2.7,1-3.3,1.7
		s-0.9,1.8-0.9,3.1v77.4c0,1.4,0.3,2.4,1,3.2s1.8,1.3,3.3,1.7v2.1h-28.5v-2.1c1.6-0.5,2.7-1,3.3-1.7
		C1856.6,567.3,1856.9,566.3,1856.9,564.9z"/>
	<path class="st8" d="M1988.9,479c15.9,0,28.6,4.3,37.9,12.9c9.9,9,14.8,20.7,14.8,34.9c0,8.8-2.4,16.9-7.1,24.5
		c-9.2,14.8-24.4,22.2-45.5,22.2c-15.8,0-28.4-4.3-37.7-12.9c-5-4.6-8.8-10.1-11.4-16.5c-2.3-5.7-3.4-11.6-3.4-17.9
		c0-9.2,2.3-17.5,7-25.1C1952.5,486.6,1967.6,479.2,1988.9,479z M1988.9,494.5c-8.7,0-16,2.6-21.8,7.8c-6.9,6.1-10.3,14.1-10.3,24
		c0,9.9,3.4,17.9,10.3,24c5.8,5.2,13.1,7.8,21.9,7.8s16.1-2.6,21.8-7.8c3.4-3.1,6.1-6.8,7.9-11.3c1.6-4,2.4-8.1,2.4-12.3
		c0-10.3-3.4-18.5-10.3-24.4C2005.1,497.2,1997.8,494.6,1988.9,494.5z"/>
</g>
</svg>
